# xmcd
#
# Track frame offsets:
#	180
#	15800
#	32367
#	42707
#	61207
#	73462
#	86520
#	102057
#	119225
#	132177
#	152955
#	169890
#
# Disc length: 2408 seconds
#
# Revision: 0
# Processed by: cddbd v1.5.2PL0 Copyright (c) Steve Scherf et al.
# Submitted via: EasyCDDAExtractor 16.0.1.1
#
DISCID=a109660c
DTITLE=Norman and Nancy Blake - Blind Dog
DYEAR=1987
DGENRE=Country
TTITLE0=Little Stream Of Whiskey
TTITLE1=Grand Coulee Dam
TTITLE2=Prettiest Little Girl In The Country
TTITLE3=Billy Gray
TTITLE4=Otto Wood The Bandit
TTITLE5=Blind Dog
TTITLE6=Everybody Works But Father
TTITLE7=Fifty Miles Of Elbow Room
TTITLE8=Shallegra
TTITLE9=Old Time Farmer
TTITLE10=Wreck Of The Old '97
TTITLE11=Black Mountain Rag
EXTD=
EXTT0=
EXTT1=
EXTT2=
EXTT3=
EXTT4=
EXTT5=
EXTT6=
EXTT7=
EXTT8=
EXTT9=
EXTT10=
EXTT11=
PLAYORDER=
